<?xml version="1.0" encoding="UTF-8"?>
<svg version="1.1" xmlns="http://www.w3.org/2000/svg" width="512" height="512">
<path d="M0 0 C12.42182729 10.30447037 17.91279427 23.77037865 19.97265625 39.515625 C20.60680446 52.36401917 15.43123613 65.92396792 7.3125 75.7109375 C-3.23269884 86.85608201 -16.94048033 92.95223267 -32.3125 93.7109375 C-46.63658241 92.97636917 -60.38250952 87.8461072 -70.3125 77.3359375 C-79.29574992 67.11509021 -85.30294325 53.3370809 -84.59375 39.5078125 C-82.53882899 23.63925581 -77.23663023 10.27111142 -64.5 0.1484375 C-44.66003659 -13.81161323 -19.92933493 -14.34104169 0 0 Z " fill="#000000" transform="translate(288.3125,214.6640625)"/>
<path d="M0 0 C11.8754147 12.15158714 16.97749698 25.32062994 17.00439453 41.97021484 C16.80760648 55.4514108 11.45136323 66.60321523 2.6875 76.75 C-8.26508275 86.12271263 -21.33671534 92.50708249 -36.03515625 91.99609375 C-51.72615893 90.30049655 -65.18021897 84.73786103 -75.28125 72.33203125 C-84.56626302 59.6438249 -88.07491504 46.13133591 -85.84765625 30.484375 C-83.0523393 16.52433058 -75.89006738 5.39229504 -64.4375 -3.0625 C-43.91723046 -16.5964793 -19.52836244 -14.42256418 0 0 Z " fill="#000000" transform="translate(495.3125,216.25)"/>
<path d="M0 0 C10.80010805 9.03049575 17.83289295 21.18812713 19.5 35.18359375 C20.70243774 50.54104414 16.64602385 64.09834907 6.75 75.93359375 C-4.00948322 87.36810159 -16.91164958 92.23372896 -32.3125 93.49609375 C-45.86827509 92.9981265 -59.90666955 88.00002491 -69.5 78.18359375 C-81.60900051 63.72544714 -84.85828672 49.54822241 -83.5 31.18359375 C-80.91927206 17.46886813 -72.73960288 6.02703934 -61.49609375 -1.88671875 C-42.18210476 -14.32623708 -18.69347911 -13.58198091 0 0 Z " fill="#000000" transform="translate(83.5,214.81640625)"/>
</svg>
